<svg xmlns="http://www.w3.org/2000/svg" viewBox="0 0 28.81 28.81"><defs><style>.b6d9d30e-38a5-4132-878f-5f05e5082026{fill:#fff;}</style></defs><title>Recurso 1</title><g id="ed24b79f-b110-496e-aa1a-bf7d9eb9f09e" data-name="Capa 2"><g id="a12ba900-215e-4e54-8be6-f6cd6e912691" data-name="Capa 1"><path class="b6d9d30e-38a5-4132-878f-5f05e5082026" d="M28.27,13.12,15.69.54a1.87,1.87,0,0,0-2.63,0L10.45,3.16l3.32,3.31A2.18,2.18,0,0,1,16,7a2.21,2.21,0,0,1,.53,2.28l3.19,3.19a2.21,2.21,0,1,1-1.32,1.25l-3-3v7.83A2.39,2.39,0,0,1,16,19a2.21,2.21,0,1,1-3.12,0,2.27,2.27,0,0,1,.72-.48V10.6a2.27,2.27,0,0,1-.72-.48,2.22,2.22,0,0,1-.48-2.41L9.17,4.44.54,13.06a1.87,1.87,0,0,0,0,2.63L13.12,28.27a1.87,1.87,0,0,0,2.63,0L28.27,15.75a1.87,1.87,0,0,0,0-2.63"/></g></g></svg>