<svg xmlns="http://www.w3.org/2000/svg" viewBox="0 0 29.73 26.45"><defs><style>.bdf31ae4-55d7-4824-aef7-fb31a9254655{fill:#fff;}</style></defs><title>Recurso 7</title><g id="ee85431e-5702-491f-bc78-13b6ed6af9a4" data-name="Capa 2"><g id="b23ca5b5-9d7f-49c8-8c7c-cca94c573ea3" data-name="Capa 1"><path class="bdf31ae4-55d7-4824-aef7-fb31a9254655" d="M24.44,8.57l-1-.3.15-.65c.72-3.52.25-6.35-1.37-7.28s-4.09,0-6.65,2.26l-.74.68-.49-.45C11.7.44,9-.56,7.39.38S5.39,3.94,6,7.27c.06.32.14.65.22,1-.38.11-.75.23-1.1.35C2,9.7,0,11.42,0,13.2S2.16,16.89,5.44,18l.8.25c-.09.37-.17.72-.23,1.07-.62,3.27-.14,5.87,1.41,6.76s4.27,0,6.88-2.3c.21-.18.41-.38.62-.58.27.26.54.51.8.74,2.53,2.17,5,3.05,6.57,2.16S24.4,22.39,23.73,19c-.05-.26-.11-.52-.18-.79l.56-.18c3.4-1.13,5.62-2.95,5.62-4.82s-2.07-3.52-5.29-4.63Zm-.73,8.25-.5.15a30.74,30.74,0,0,0-1.51-3.76A31.39,31.39,0,0,0,23.15,9.5c.3.08.6.18.88.27,2.75,1,4.43,2.35,4.43,3.43s-1.81,2.64-4.75,3.62Zm-1.23,2.42a10.86,10.86,0,0,1,.15,3.92,2.65,2.65,0,0,1-1,1.85c-.93.54-2.94-.17-5.1-2-.25-.21-.49-.44-.75-.68a29.53,29.53,0,0,0,2.5-3.16,30.86,30.86,0,0,0,4-.62c.06.24.12.48.16.72ZM10.14,24.91A2.58,2.58,0,0,1,8.05,25c-.94-.54-1.33-2.63-.8-5.43.07-.32.14-.65.22-1a28.82,28.82,0,0,0,4,.58A30,30,0,0,0,14,22.31c-.19.18-.38.36-.57.52a10.74,10.74,0,0,1-3.32,2.08Zm-4.29-8.1A10.9,10.9,0,0,1,2.38,15,2.61,2.61,0,0,1,1.27,13.2c0-1.08,1.61-2.46,4.31-3.4.32-.11.66-.22,1-.32a30,30,0,0,0,1.45,3.75A31.51,31.51,0,0,0,6.58,17l-.73-.23ZM7.28,7C6.73,4.17,7.1,2,8,1.47s3.2.25,5.51,2.31l.45.41a30.49,30.49,0,0,0-2.53,3.13,30.86,30.86,0,0,0-4,.62c-.08-.31-.15-.62-.21-.92Zm12.83,3.17c-.29-.51-.6-1-.9-1.49a27.24,27.24,0,0,1,2.71.48,27.29,27.29,0,0,1-1,2.56c-.26-.51-.55-1-.85-1.55ZM14.88,5.1a25.8,25.8,0,0,1,1.75,2.11c-.58,0-1.17,0-1.76,0s-1.18,0-1.75,0A25.2,25.2,0,0,1,14.88,5.1ZM9.62,10.2c-.3.51-.58,1-.84,1.54-.37-.88-.69-1.74-.95-2.57.85-.19,1.76-.35,2.7-.47-.31.49-.62,1-.91,1.5Zm.93,7.59c-1-.11-1.89-.26-2.74-.44.27-.85.59-1.73,1-2.63.26.52.55,1,.84,1.54h0q.45.78.93,1.53Zm4.36,3.6a26.22,26.22,0,0,1-1.78-2.14c.57,0,1.15,0,1.74,0s1.2,0,1.79,0a26.43,26.43,0,0,1-1.75,2.14ZM21,14.68c.39.91.73,1.78,1,2.61a27.2,27.2,0,0,1-2.78.48c.31-.49.62-1,.91-1.52s.6-1.05.87-1.57Zm-2,.94c-.46.81-.94,1.58-1.42,2.3-.88.06-1.8.1-2.72.1s-1.83,0-2.7-.09c-.5-.73-1-1.51-1.45-2.3h0c-.46-.8-.88-1.6-1.27-2.4.39-.8.81-1.6,1.27-2.4h0c.46-.79.94-1.56,1.44-2.29.88-.07,1.79-.1,2.71-.1h0c.92,0,1.82,0,2.71.1.49.73,1,1.49,1.43,2.29s.89,1.6,1.28,2.38c-.38.8-.81,1.61-1.28,2.41ZM21.63,1.44c1,.57,1.39,2.89.76,5.92,0,.2-.08.39-.13.59a31,31,0,0,0-4-.62,28.76,28.76,0,0,0-2.51-3.14l.68-.63C18.65,1.65,20.7.9,21.63,1.44Zm-6.76,9.11a2.66,2.66,0,1,1-2.66,2.65,2.65,2.65,0,0,1,2.66-2.65Z"/></g></g></svg>