<svg xmlns="http://www.w3.org/2000/svg" viewBox="0 0 28.08 26.12"><defs><style>.a00fc45b-fb5b-40f9-b74c-13c98174589d{fill:none;stroke:#fff;stroke-linecap:round;stroke-linejoin:round;}</style></defs><title>Recurso 8</title><g id="a411530d-08a1-474e-a713-dcce68f8c064" data-name="Capa 2"><g id="bcbd0546-db82-45ce-b23e-3b6bbe2f83d5" data-name="Capa 1"><path class="a00fc45b-fb5b-40f9-b74c-13c98174589d" d="M24.17.5h.48A3.47,3.47,0,0,1,27,5.91L17.5,20.12a3.46,3.46,0,0,0,2.32,5.41h.48a3.88,3.88,0,0,0,3.87-3.87H17.88"/><line class="a00fc45b-fb5b-40f9-b74c-13c98174589d" x1="23.68" y1="0.5" x2="7.74" y2="0.5"/><path class="a00fc45b-fb5b-40f9-b74c-13c98174589d" d="M9.48,7.55,1.07,20.12c-1.35,2.12-.19,5.21,2.32,5.5H19.82"/><path class="a00fc45b-fb5b-40f9-b74c-13c98174589d" d="M7.26.5A3.88,3.88,0,0,0,3.39,4.37a3.07,3.07,0,0,0,.39,1.35,3.42,3.42,0,0,0,2.9,1.54H21.75c-1,0-3-2.7-.87-5.31A3.68,3.68,0,0,1,23.68.5a3.88,3.88,0,0,1,3.87,3.87"/><line class="a00fc45b-fb5b-40f9-b74c-13c98174589d" x1="11.12" y1="11.66" x2="18.75" y2="11.66"/><line class="a00fc45b-fb5b-40f9-b74c-13c98174589d" x1="8.91" y1="14.99" x2="15.19" y2="14.99"/><line class="a00fc45b-fb5b-40f9-b74c-13c98174589d" x1="6.76" y1="18.19" x2="11.53" y2="18.19"/><line class="a00fc45b-fb5b-40f9-b74c-13c98174589d" x1="4.62" y1="21.51" x2="7.96" y2="21.51"/></g></g></svg>