<svg xmlns="http://www.w3.org/2000/svg" viewBox="0 0 29.03 29.03"><defs><style>.afeb1da7-2759-4339-8080-27d891487689{fill:#fff;}</style></defs><title>Recurso 12</title><g id="f2b4be03-a354-469f-a413-4023bd4213a6" data-name="Capa 2"><g id="b2ef965d-162e-44bd-809e-44a18fe30d67" data-name="Capa 1"><path class="afeb1da7-2759-4339-8080-27d891487689" d="M0,0V29H29V0ZM15.8,22.64c0,2.83-1.66,4.11-4.08,4.11a4.24,4.24,0,0,1-4.09-2.49h0l2.22-1.35c.43.76.82,1.41,1.76,1.41s1.46-.35,1.46-1.72V13.33H15.8Zm6.45,4.11a5.24,5.24,0,0,1-5-2.78h0l2.22-1.29a3,3,0,0,0,2.69,1.66c1.13,0,1.85-.57,1.85-1.35s-.74-1.26-2-1.81l-.68-.29c-2-.84-3.27-1.89-3.27-4.11,0-2.05,1.56-3.61,4-3.61A4,4,0,0,1,26,15.35l-2.12,1.37a1.86,1.86,0,0,0-1.76-1.17,1.18,1.18,0,0,0-1.3,1.17c0,.82.5,1.15,1.67,1.65l.68.3c2.32,1,3.63,2,3.63,4.28C26.77,25.41,24.84,26.75,22.25,26.75Z"/></g></g></svg>