<svg xmlns="http://www.w3.org/2000/svg" viewBox="0 0 27.5 28.81"><defs><style>.b322e35f-773d-468d-86f6-5775756c2be0{fill:#458bc4;}.b93fbcac-1d70-4d7c-abc9-7adb98c789a9{fill:#43a6dd;}.b5a77634-2710-42e3-ac2f-1538e984b7c1{fill:#badefc;}</style></defs><title>Recurso 6</title><g id="b2b7cdf0-9d7b-4760-9f2e-7f2150cc2d84" data-name="Capa 2"><g id="b024b087-6720-4e57-8b02-98ce72075f39" data-name="Capa 1"><path class="b322e35f-773d-468d-86f6-5775756c2be0" d="M27.21,5.35a.63.63,0,0,0-.61-.06L13.51,10.52a.66.66,0,0,0-.42.61v17a.68.68,0,0,0,.29.55.7.7,0,0,0,.37.11.69.69,0,0,0,.24,0l13.1-5.24a.65.65,0,0,0,.41-.6v-17A.66.66,0,0,0,27.21,5.35Z"/><path class="b93fbcac-1d70-4d7c-abc9-7adb98c789a9" d="M13.75,10.43.9,5.29a.66.66,0,0,0-.61.06A.66.66,0,0,0,0,5.89v17a.65.65,0,0,0,.41.6l13.1,5.24a.64.64,0,0,0,.24,0Z"/><path class="b5a77634-2710-42e3-ac2f-1538e984b7c1" d="M27.09,5.29,14,.05a.57.57,0,0,0-.48,0L.41,5.29a.65.65,0,0,0,0,1.21l13.1,5.24a.64.64,0,0,0,.24,0,.69.69,0,0,0,.24,0L27.09,6.5a.65.65,0,0,0,0-1.21Z"/></g></g></svg>