<svg xmlns="http://www.w3.org/2000/svg" viewBox="0 0 32.38 28.81"><defs><style>.ed4633fa-f29e-455d-9d6a-7b1e6c57b947{fill:#fff;}</style></defs><title>Recurso 2</title><g id="afe9ff7a-58db-49fc-bbbd-6b28aa879cd4" data-name="Capa 2"><g id="b0f11955-2a0d-4ffb-8263-81dfb071e562" data-name="Capa 1"><path class="ed4633fa-f29e-455d-9d6a-7b1e6c57b947" d="M26.62,9.34c-.33-.12-.68-.23-1-.33.06-.24.11-.48.16-.71.79-3.83.27-6.92-1.49-7.93S19.8.41,17,2.84c-.27.23-.54.48-.8.74-.18-.18-.36-.34-.54-.5C12.74.48,9.81-.61,8.05.41S5.87,4.29,6.58,7.92c.07.35.15.71.24,1.07-.42.12-.82.24-1.2.38C2.19,10.56,0,12.43,0,14.38s2.35,4,5.92,5.24l.88.27c-.1.39-.19.78-.26,1.16-.68,3.56-.15,6.4,1.54,7.37s4.65,0,7.49-2.51c.23-.2.45-.41.68-.63.29.28.58.55.88.8,2.75,2.37,5.47,3.33,7.15,2.35s2.3-4.05,1.56-7.75c-.05-.28-.12-.57-.19-.86l.6-.19c3.71-1.23,6.13-3.22,6.13-5.25s-2.26-3.84-5.76-5Zm-.8,9-.55.17a32.21,32.21,0,0,0-1.64-4.11,31.94,31.94,0,0,0,1.58-4l1,.31c3,1,4.83,2.55,4.83,3.73s-2,2.87-5.18,3.94ZM24.49,21a11.65,11.65,0,0,1,.15,4.27,2.83,2.83,0,0,1-1.06,2c-1,.6-3.2-.17-5.55-2.2-.27-.23-.54-.48-.82-.74a31.67,31.67,0,0,0,2.72-3.45,31,31,0,0,0,4.38-.67c.07.26.13.53.18.78ZM11,27.13a2.86,2.86,0,0,1-2.27.09c-1-.59-1.45-2.86-.87-5.92.07-.34.15-.7.24-1.07a33.31,33.31,0,0,0,4.36.63,35.84,35.84,0,0,0,2.78,3.44l-.62.56A11.56,11.56,0,0,1,11,27.13ZM6.37,18.31a11.71,11.71,0,0,1-3.78-2,2.88,2.88,0,0,1-1.21-1.92c0-1.18,1.76-2.69,4.69-3.71.36-.12.73-.24,1.12-.35a30.83,30.83,0,0,0,1.58,4.09,34.43,34.43,0,0,0-1.6,4.15l-.8-.25ZM7.93,7.65c-.6-3.11-.2-5.46.82-6s3.48.26,6,2.5l.49.45A32.87,32.87,0,0,0,12.48,8a32.33,32.33,0,0,0-4.32.67c-.09-.34-.16-.67-.23-1Zm14,3.45c-.32-.55-.65-1.09-1-1.62a28.23,28.23,0,0,1,2.95.52,29.15,29.15,0,0,1-1,2.78c-.29-.55-.6-1.12-.93-1.68ZM16.21,5.55c.63.69,1.27,1.46,1.9,2.3-.63,0-1.27,0-1.92,0s-1.28,0-1.91,0c.63-.83,1.28-1.6,1.93-2.3Zm-5.74,5.56c-.32.55-.62,1.11-.91,1.67-.4-.95-.75-1.89-1-2.8.92-.2,1.91-.37,2.94-.5-.34.53-.68,1.07-1,1.63Zm1,8.27a29.73,29.73,0,0,1-3-.48C8.8,18,9.15,17,9.56,16c.29.56.6,1.12.92,1.67h0c.33.57.67,1.12,1,1.67Zm4.74,3.92c-.65-.71-1.31-1.49-1.94-2.33.62,0,1.25,0,1.89,0s1.31,0,1.95-.05a27.88,27.88,0,0,1-1.9,2.34ZM22.85,16a29.18,29.18,0,0,1,1.08,2.85c-.94.21-1.95.38-3,.51.34-.53.67-1.08,1-1.65s.64-1.14.94-1.71Zm-2.14,1c-.51.88-1,1.72-1.55,2.51-1,.07-2,.1-3,.1s-2,0-2.93-.09c-.55-.8-1.08-1.64-1.58-2.51h0c-.51-.87-1-1.74-1.39-2.61.42-.87.88-1.75,1.38-2.61h0c.5-.87,1-1.7,1.57-2.5,1-.07,1.95-.11,3-.11h0c1,0,2,0,2.95.11.54.79,1.06,1.63,1.56,2.49s1,1.75,1.4,2.6c-.42.87-.89,1.75-1.39,2.62ZM23.56,1.56c1.09.63,1.51,3.15.83,6.46l-.15.64A32.45,32.45,0,0,0,19.91,8a32,32,0,0,0-2.74-3.42c.25-.24.5-.46.75-.68C20.31,1.8,22.54,1,23.56,1.56Zm-7.37,9.93a2.89,2.89,0,1,1-2.89,2.89,2.89,2.89,0,0,1,2.89-2.89Z"/></g></g></svg>