<svg xmlns="http://www.w3.org/2000/svg" viewBox="0 0 29.9 27.81"><defs><style>.a825fb8d-8561-4e42-9869-b10905ab8581{fill:none;stroke:#fff;stroke-linecap:round;stroke-linejoin:round;}</style></defs><title>Recurso 5</title><g id="a09d7249-0bb8-4879-b612-cb9c9b795aae" data-name="Capa 2"><g id="f6f983c3-38cd-42d6-941f-a9a6aa093966" data-name="Capa 1"><path class="a825fb8d-8561-4e42-9869-b10905ab8581" d="M25.75.5h.52a3.69,3.69,0,0,1,2.47,5.77L18.64,21.43a3.7,3.7,0,0,0,2.47,5.78h.52a4.14,4.14,0,0,0,4.12-4.13h-6.7"/><line class="a825fb8d-8561-4e42-9869-b10905ab8581" x1="25.24" y1="0.5" x2="8.22" y2="0.5"/><path class="a825fb8d-8561-4e42-9869-b10905ab8581" d="M10.08,8l-9,13.4C-.33,23.7.9,27,3.58,27.31H21.11"/><path class="a825fb8d-8561-4e42-9869-b10905ab8581" d="M7.71.5A4.14,4.14,0,0,0,3.58,4.62,3.31,3.31,0,0,0,4,6.07,3.63,3.63,0,0,0,7.09,7.72H23.17c-1,0-3.19-2.89-.92-5.67a3.9,3.9,0,0,1,3-1.55,4.13,4.13,0,0,1,4.12,4.12"/><line class="a825fb8d-8561-4e42-9869-b10905ab8581" x1="11.83" y1="12.4" x2="19.97" y2="12.4"/><line class="a825fb8d-8561-4e42-9869-b10905ab8581" x1="9.47" y1="15.97" x2="16.17" y2="15.97"/><line class="a825fb8d-8561-4e42-9869-b10905ab8581" x1="7.18" y1="19.38" x2="12.27" y2="19.38"/><line class="a825fb8d-8561-4e42-9869-b10905ab8581" x1="4.9" y1="22.92" x2="8.46" y2="22.92"/></g></g></svg>