<svg xmlns="http://www.w3.org/2000/svg" viewBox="0 0 28.77 28.81"><defs><style>.b2c04873-02eb-4b12-bd1c-3ec7efb1b434{fill:#fff;}</style></defs><title>Recurso 10</title><g id="abc8b205-031f-4444-b3b7-ba0413a5275f" data-name="Capa 2"><g id="ac79b351-3d0d-45b8-b773-ef88f45623c8" data-name="Capa 1"><path class="b2c04873-02eb-4b12-bd1c-3ec7efb1b434" d="M28.77,12.92a1,1,0,0,0-.3-.71L25.59,9.63h0L15.07.26a1,1,0,0,0-1.34,0L3.24,9.63h0L.33,12.21a1,1,0,0,0-.33.67A1,1,0,0,0,.8,14s2,0,2.08,0V27.8a1,1,0,0,0,1,1h6.8a1,1,0,0,0,1-1V19.47h5.43V27.8a1,1,0,0,0,1,1h6.74a1,1,0,0,0,1-1V14H28A1,1,0,0,0,28.77,12.92Z"/></g></g></svg>