<svg xmlns="http://www.w3.org/2000/svg" viewBox="0 0 26.5 28.46"><defs><style>.a7849763-e2d8-492e-b1ce-16030a0d595b{fill:#fff;}</style></defs><title>Recurso 3</title><g id="b89e9420-af9d-4016-856a-685aa3c55e04" data-name="Capa 2"><g id="a0de05e1-3009-4323-9a3a-adab78c295f2" data-name="Capa 1"><polygon class="a7849763-e2d8-492e-b1ce-16030a0d595b" points="13.25 0 13.25 0 13.25 0 0 4.72 2.02 22.24 13.25 28.46 13.25 28.46 13.25 28.46 24.48 22.24 26.5 4.72 13.25 0"/><polygon class="a7849763-e2d8-492e-b1ce-16030a0d595b" points="13.25 0 13.25 3.16 13.25 3.15 13.25 17.56 13.25 17.56 13.25 28.46 13.25 28.46 24.48 22.24 26.5 4.72 13.25 0"/><path d="M13.25,3.14,5,21.71H8.05l1.67-4.15h7l1.66,4.15H21.5L13.25,3.14ZM15.67,15H10.83l2.42-5.82Z"/></g></g></svg>