<svg xmlns="http://www.w3.org/2000/svg" viewBox="0 0 29.03 29.03"><defs><style>.b7d77f7c-cb33-49df-b901-3b58d443e1fb{fill:#fff;}</style></defs><title>Recurso 4</title><g id="bd9c723b-4468-4840-ba56-ac9c400ee492" data-name="Capa 2"><g id="a849f6ab-ec34-4485-852d-c9d6e8707d0f" data-name="Capa 1"><path class="b7d77f7c-cb33-49df-b901-3b58d443e1fb" d="M0,0H29V29H0Z"/><path d="M7.63,24.26l2.22-1.35c.43.76.82,1.41,1.76,1.41s1.46-.35,1.46-1.72V13.33H15.8v9.31c0,2.83-1.66,4.11-4.08,4.11a4.24,4.24,0,0,1-4.09-2.49"/><path d="M17.28,24l2.22-1.29a3,3,0,0,0,2.69,1.66c1.13,0,1.85-.57,1.85-1.35s-.74-1.26-2-1.81l-.68-.29c-2-.84-3.27-1.89-3.27-4.11,0-2.05,1.56-3.61,4-3.61A4,4,0,0,1,26,15.35l-2.12,1.37a1.86,1.86,0,0,0-1.76-1.17,1.18,1.18,0,0,0-1.3,1.17c0,.82.5,1.15,1.67,1.65l.68.3c2.32,1,3.63,2,3.63,4.28,0,2.46-1.93,3.8-4.52,3.8a5.24,5.24,0,0,1-5-2.78"/></g></g></svg>